<svg id="Logo_HCM" data-name="Logo HCM" xmlns="http://www.w3.org/2000/svg" width="173.047" height="39.999" viewBox="0 0 173.047 39.999">
  <g id="Color" transform="translate(0)">
    <g id="Grupo_861" data-name="Grupo 861">
      <g id="Grupo_859" data-name="Grupo 859">
        <path id="Trazado_1243" data-name="Trazado 1243" d="M113.743,68.3a27.1,27.1,0,0,0-12.489-7.407c-5.137-1.39-9.622-.994-13.426,1.249v.027c-4.456,2.584-6.67,6.755-6.67,12.431a22.107,22.107,0,0,0,3.917,12.544,30.554,30.554,0,0,0,4.173,5.022c5.336,5.25,11.24,7.89,17.654,7.918,5.62,0,9.792-2.156,12.462-6.413a14.462,14.462,0,0,0,2.129-6.527,18.273,18.273,0,0,0-.6-6.442A26.579,26.579,0,0,0,113.743,68.3Zm-12.205-5.335a24.594,24.594,0,0,1,17.315,17.4,16.358,16.358,0,0,1,.256,6.783,12.511,12.511,0,0,1-1.845,4.455c-2.356,3.548-5.99,5.251-10.872,5.165C101,96.653,96.06,94.354,91.576,89.955a27.44,27.44,0,0,1-2.47-2.809,19.943,19.943,0,0,1-4.541-12.034c-.085-4.853,1.7-8.457,5.421-10.784V64.3C93.222,62.256,97.054,61.83,101.538,62.965Z" transform="translate(-81.159 -60.086)" fill="#bf0031"/>
        <path id="Trazado_1244" data-name="Trazado 1244" d="M152.714,85.922c-.6-.142-.823.114-.738.682l.227,1.476a1.234,1.234,0,0,0,1.079,1.049l1.533.312c.539.113.766-.142.652-.709l-.227-1.42a1.3,1.3,0,0,0-1.05-1.05Z" transform="translate(-126.402 -76.573)" fill="#bf0031"/>
        <path id="Trazado_1245" data-name="Trazado 1245" d="M120.017,82.208c.681.113.966-.142.909-.738l-.2-1.562a1.211,1.211,0,0,0-1.079-1.135l-1.788-.4c-.682-.142-.994.114-.937.71l.17,1.589c.029.624.4.993,1.107,1.136Z" transform="translate(-104.009 -71.75)" fill="#bf0031"/>
        <path id="Trazado_1246" data-name="Trazado 1246" d="M163.666,134.081l-.341-1.817c-.141-.71-.482-1.079-1.107-1.107l-1.647-.2c-.624-.057-.908.255-.766.937l.312,1.874a1.2,1.2,0,0,0,1.163,1.136l1.675.142C163.551,135.1,163.807,134.762,163.666,134.081Z" transform="translate(-131.393 -105.376)" fill="#bf0031"/>
        <path id="Trazado_1247" data-name="Trazado 1247" d="M157.028,97.738a1.175,1.175,0,0,0-1.022-1.021l-1.5-.255c-.625-.143-.88.113-.795.68l.284,1.56a1.235,1.235,0,0,0,1.079,1.079l1.561.256c.568.086.8-.17.709-.738Z" transform="translate(-127.509 -83.309)" fill="#bf0031"/>
        <path id="Trazado_1248" data-name="Trazado 1248" d="M155.638,108.119l.284,1.7a1.213,1.213,0,0,0,1.106,1.08l1.561.2c.6.085.852-.17.738-.794l-.312-1.619a1.177,1.177,0,0,0-1.05-1.049l-1.533-.283C155.78,107.268,155.5,107.523,155.638,108.119Z" transform="translate(-128.73 -90.285)" fill="#bf0031"/>
        <path id="Trazado_1249" data-name="Trazado 1249" d="M121.865,91.1a1.268,1.268,0,0,0-1.108-1.135l-1.845-.34c-.681-.142-1.022.112-.965.737l.142,1.7a1.251,1.251,0,0,0,1.164,1.164l1.873.284c.653.141.965-.143.908-.767Z" transform="translate(-104.664 -78.939)" fill="#bf0031"/>
        <path id="Trazado_1250" data-name="Trazado 1250" d="M122.3,105.48c.71.115.993-.2.908-.85l-.2-1.731a1.207,1.207,0,0,0-1.134-1.192L120,101.423c-.71-.142-1.05.141-.965.822l.142,1.788a1.192,1.192,0,0,0,1.192,1.163Z" transform="translate(-105.356 -86.482)" fill="#bf0031"/>
        <path id="Trazado_1251" data-name="Trazado 1251" d="M136.146,115.853l-1.816-.255c-.71-.113-.994.2-.909.908l.2,1.846a1.261,1.261,0,0,0,1.193,1.192l1.873.2q.98.083.852-.937l-.256-1.817A1.2,1.2,0,0,0,136.146,115.853Z" transform="translate(-114.547 -95.549)" fill="#bf0031"/>
        <path id="Trazado_1252" data-name="Trazado 1252" d="M123.488,118.062c.71.113,1.05-.228.965-.908l-.2-1.9a1.282,1.282,0,0,0-1.192-1.192l-1.9-.255c-.739-.086-1.108.227-1.023.909l.17,1.93a1.253,1.253,0,0,0,1.221,1.248Z" transform="translate(-106.06 -94.408)" fill="#bf0031"/>
        <path id="Trazado_1253" data-name="Trazado 1253" d="M124.324,127.214l-1.959-.2c-.8-.085-1.135.227-1.05,1.022l.2,2.016a1.177,1.177,0,0,0,1.249,1.249l2.015.171c.736.056,1.078-.313.993-1.023l-.227-2.016A1.269,1.269,0,0,0,124.324,127.214Z" transform="translate(-106.812 -102.852)" fill="#bf0031"/>
        <path id="Trazado_1254" data-name="Trazado 1254" d="M161.06,120.123a1.157,1.157,0,0,0-1.05-1.079l-1.561-.228c-.653-.113-.937.171-.823.851l.283,1.76a1.268,1.268,0,0,0,1.163,1.108l1.647.2c.567.056.823-.227.709-.88Z" transform="translate(-130.008 -97.605)" fill="#bf0031"/>
        <path id="Trazado_1255" data-name="Trazado 1255" d="M148.451,117.5l-1.675-.255c-.653-.113-.937.2-.852.88l.256,1.816a1.248,1.248,0,0,0,1.163,1.135l1.7.171c.682.085.937-.2.823-.88l-.283-1.788A1.17,1.17,0,0,0,148.451,117.5Z" transform="translate(-122.536 -96.603)" fill="#bf0031"/>
      </g>
      <g id="Grupo_860" data-name="Grupo 860" transform="translate(45.283 9.942)">
        <path id="Trazado_1256" data-name="Trazado 1256" d="M428.687,100.9V88.032h-2.495v7.885l-5.132-7.885h-2.236V100.9h2.521V92.993l5.133,7.912Z" transform="translate(-342.248 -87.889)" fill="#333"/>
        <path id="Trazado_1257" data-name="Trazado 1257" d="M393.835,88.032H391.4v5.247h-4.5V88.032H384.43V100.9H386.9V95.457h4.5V100.9h2.437Z" transform="translate(-320.269 -87.889)" fill="#333"/>
        <path id="Trazado_1258" data-name="Trazado 1258" d="M359.144,89.069a4.365,4.365,0,0,0-1.519-1.089,4.579,4.579,0,0,0-1.95-.344,4.9,4.9,0,0,0-1.979.344,4.652,4.652,0,0,0-1.518,1.089,3.481,3.481,0,0,0-.774,1,6,6,0,0,0-.343,1.233,9.614,9.614,0,0,0-.144,1.347v3.126a10.062,10.062,0,0,0,.144,1.376,4.631,4.631,0,0,0,.343,1.175,3.229,3.229,0,0,0,.774,1.032,4.564,4.564,0,0,0,1.518,1.061,4.886,4.886,0,0,0,1.979.373,4.558,4.558,0,0,0,1.95-.373,4.292,4.292,0,0,0,1.519-1.061,2.486,2.486,0,0,0,.745-1.032,3.151,3.151,0,0,0,.4-1.175,9.727,9.727,0,0,0,.144-1.376c.029-.459.029-1,.029-1.577,0-.546,0-1.061-.029-1.549a9.3,9.3,0,0,0-.144-1.347,3.856,3.856,0,0,0-.4-1.233A2.605,2.605,0,0,0,359.144,89.069Zm-5.763,3.613a6.407,6.407,0,0,1,.144-1,2.734,2.734,0,0,1,.171-.661,4.117,4.117,0,0,1,.317-.429,1.819,1.819,0,0,1,.688-.517,2.783,2.783,0,0,1,.974-.172,2.42,2.42,0,0,1,.946.172,2.565,2.565,0,0,1,.717.517,1.918,1.918,0,0,1,.287.429,2.568,2.568,0,0,1,.229.661,7.1,7.1,0,0,1,.115,1v3.066a8.276,8.276,0,0,1-.115,1,2.992,2.992,0,0,1-.229.659,2.053,2.053,0,0,1-.287.459,4.565,4.565,0,0,1-.717.487,2.418,2.418,0,0,1-.946.173,2.783,2.783,0,0,1-.974-.173,2.645,2.645,0,0,1-.688-.487,4.327,4.327,0,0,1-.317-.459,3.134,3.134,0,0,1-.171-.659,7.668,7.668,0,0,1-.144-1V92.682Z" transform="translate(-298.852 -87.636)" fill="#333"/>
        <path id="Trazado_1259" data-name="Trazado 1259" d="M328.371,89.126a4.609,4.609,0,0,0-1.834-1.146,6.348,6.348,0,0,0-2.293-.344,5.375,5.375,0,0,0-1.893.287,3.928,3.928,0,0,0-1.4.8,3.08,3.08,0,0,0-.889,1.232,3.535,3.535,0,0,0-.344,1.577,3.47,3.47,0,0,0,.946,2.524,4.589,4.589,0,0,0,2.495,1.089l1.548.2a5.22,5.22,0,0,1,.717.172,3.751,3.751,0,0,1,.43.286,1.378,1.378,0,0,1,.4,1.12,1.481,1.481,0,0,1-.573,1.2,3.073,3.073,0,0,1-1.692.4,6.729,6.729,0,0,1-1.72-.23,3.65,3.65,0,0,1-1.4-.889l-1.634,1.634a4.454,4.454,0,0,0,2.093,1.376,8.2,8.2,0,0,0,2.609.373,7.969,7.969,0,0,0,1.893-.258,4.334,4.334,0,0,0,1.49-.774,3.217,3.217,0,0,0,1-1.232,3.571,3.571,0,0,0,.4-1.663,4.554,4.554,0,0,0-.231-1.577,3.314,3.314,0,0,0-.774-1.2,3.513,3.513,0,0,0-1-.632,7.358,7.358,0,0,0-1.433-.371l-1.549-.2a3.373,3.373,0,0,1-.717-.2,2.072,2.072,0,0,1-.487-.317,3.744,3.744,0,0,1-.286-.429,1.573,1.573,0,0,1-.087-.488,1.659,1.659,0,0,1,.487-1.146,2.165,2.165,0,0,1,1.49-.488,8.326,8.326,0,0,1,1.376.143,2.926,2.926,0,0,1,1.29.774Z" transform="translate(-278.602 -87.636)" fill="#333"/>
        <path id="Trazado_1260" data-name="Trazado 1260" d="M289.008,88.032h-2.264V100.9h2.551V92.993l5.1,7.912h2.207V88.032h-2.494v7.885Z" transform="translate(-257.845 -87.889)" fill="#333"/>
        <path id="Trazado_1261" data-name="Trazado 1261" d="M274.118,88.032h-2.466V100.9h2.466Z" transform="translate(-248.2 -87.889)" fill="#333"/>
        <path id="Trazado_1262" data-name="Trazado 1262" d="M243.7,98.641v-3.1h5.132V93.28H243.7V90.269h5.992V88.033h-8.458v12.873h8.458V98.641H243.7Z" transform="translate(-228.761 -87.89)" fill="#333"/>
        <path id="Trazado_1263" data-name="Trazado 1263" d="M216.117,88.032h-2.495v5.247h-4.444V88.032h-2.494V100.9h2.494V95.457h4.444V100.9h2.495Z" transform="translate(-206.684 -87.889)" fill="#333"/>
      </g>
    </g>
    <g id="Grupo_862" data-name="Grupo 862" transform="translate(138.402 9.863)">
      <path id="Trazado_1264" data-name="Trazado 1264" d="M471.61,100.758V95.3H467.2v5.456h-2.545V87.721H467.2v5.328h4.413V87.721h2.545v13.037H471.61Z" transform="translate(-464.652 -87.611)" fill="#333"/>
      <path id="Trazado_1265" data-name="Trazado 1265" d="M507.776,96.553a5.531,5.531,0,0,1-.586,1.758,4.341,4.341,0,0,1-2.472,2.087,5.359,5.359,0,0,1-1.74.275,4.778,4.778,0,0,1-3.516-1.428,3.741,3.741,0,0,1-1.062-1.959,24.038,24.038,0,0,1,0-6.482,3.747,3.747,0,0,1,1.062-1.959,4.778,4.778,0,0,1,3.516-1.428,4.585,4.585,0,0,1,4.8,4.12h-2.582a2.654,2.654,0,0,0-.732-1.346,2.042,2.042,0,0,0-1.464-.5,2.006,2.006,0,0,0-1.63.678,1.927,1.927,0,0,0-.522,1.108,8.871,8.871,0,0,0-.092,1.007q-.027.613-.027,1.566t.027,1.566a8.949,8.949,0,0,0,.092,1.007,1.927,1.927,0,0,0,.522,1.108A2.007,2.007,0,0,0,503,98.4a2.042,2.042,0,0,0,1.464-.5,2.653,2.653,0,0,0,.732-1.346Z" transform="translate(-486.078 -87.416)" fill="#333"/>
      <path id="Trazado_1266" data-name="Trazado 1266" d="M537.171,100.758v-7.6l-2.49,4.943H532.96l-2.509-4.943v7.6h-2.545V87.721h2.508l3.405,7.049,3.388-7.049h2.508v13.037h-2.545Z" transform="translate(-505.073 -87.611)" fill="#333"/>
    </g>
    <g id="Grupo_863" data-name="Grupo 863" transform="translate(45.862 27.028)">
      <path id="Trazado_1267" data-name="Trazado 1267" d="M211.355,140.859v-2.405H209.41v2.405h-1.122v-5.747h1.122v2.349h1.945v-2.349h1.122v5.747Z" transform="translate(-208.288 -135.063)" fill="#bf0031"/>
      <path id="Trazado_1268" data-name="Trazado 1268" d="M228.73,138.889a2.024,2.024,0,0,1-.165.832,1.9,1.9,0,0,1-.452.633,2.064,2.064,0,0,1-.67.408,2.426,2.426,0,0,1-1.655,0,2.064,2.064,0,0,1-.67-.408,1.89,1.89,0,0,1-.452-.633,2.018,2.018,0,0,1-.165-.832v-3.777h1.122v3.737a1.082,1.082,0,0,0,.266.779.958.958,0,0,0,.727.278.972.972,0,0,0,.731-.278,1.073,1.073,0,0,0,.27-.779v-3.737h1.114v3.777Z" transform="translate(-218.649 -135.063)" fill="#bf0031"/>
      <path id="Trazado_1269" data-name="Trazado 1269" d="M244.907,140.859v-3.35l-1.1,2.18h-.759l-1.106-2.18v3.35h-1.122v-5.747h1.106l1.5,3.108,1.493-3.108h1.106v5.747Z" transform="translate(-229.079 -135.063)" fill="#bf0031"/>
      <path id="Trazado_1270" data-name="Trazado 1270" d="M262.253,140.859l-.339-1.017h-2.042l-.347,1.017h-1.17l2.091-5.747h.88l2.1,5.747Zm-1.34-4.052-.727,2.09h1.429Z" transform="translate(-240.282 -135.063)" fill="#bf0031"/>
      <path id="Trazado_1271" data-name="Trazado 1271" d="M278.9,140.859l-2.276-3.527v3.527h-1.122v-5.747h1l2.276,3.519v-3.519H279.9v5.747Z" transform="translate(-251.242 -135.063)" fill="#bf0031"/>
      <path id="Trazado_1272" data-name="Trazado 1272" d="M302.565,139.006a2.439,2.439,0,0,1-.258.775,1.911,1.911,0,0,1-1.089.92,2.369,2.369,0,0,1-.767.121,2.106,2.106,0,0,1-1.55-.63,1.645,1.645,0,0,1-.468-.863,10.6,10.6,0,0,1,0-2.857,1.653,1.653,0,0,1,.468-.864,2.107,2.107,0,0,1,1.55-.63,2.021,2.021,0,0,1,2.115,1.816h-1.138a1.173,1.173,0,0,0-.323-.593.9.9,0,0,0-.646-.222.886.886,0,0,0-.719.3.851.851,0,0,0-.23.488,3.868,3.868,0,0,0-.04.444q-.012.271-.012.69t.012.69a3.852,3.852,0,0,0,.04.444.936.936,0,0,0,.085.283.952.952,0,0,0,.145.206.885.885,0,0,0,.719.3.9.9,0,0,0,.646-.222,1.17,1.17,0,0,0,.323-.593h1.138Z" transform="translate(-265.831 -134.978)" fill="#bf0031"/>
      <path id="Trazado_1273" data-name="Trazado 1273" d="M314.735,140.859l-.339-1.017h-2.042l-.347,1.017h-1.17l2.09-5.747h.88l2.1,5.747Zm-1.34-4.052-.727,2.09H314.1Z" transform="translate(-273.82 -135.063)" fill="#bf0031"/>
      <path id="Trazado_1274" data-name="Trazado 1274" d="M332.111,136.9a1.864,1.864,0,0,1-.129.69,1.668,1.668,0,0,1-.375.573,1.766,1.766,0,0,1-.6.388,2.113,2.113,0,0,1-.795.141h-1.106v2.163h-1.122v-5.747h2.228a2.12,2.12,0,0,1,.795.141,1.768,1.768,0,0,1,.6.388,1.669,1.669,0,0,1,.375.573A1.863,1.863,0,0,1,332.111,136.9Zm-1.122,0a.769.769,0,0,0-.222-.573.833.833,0,0,0-.61-.218h-1.049v1.574h1.049a.842.842,0,0,0,.61-.214A.755.755,0,0,0,330.99,136.9Z" transform="translate(-284.779 -135.063)" fill="#bf0031"/>
      <path id="Trazado_1275" data-name="Trazado 1275" d="M343.169,140.859v-5.747h1.122v5.747Z" transform="translate(-294.481 -135.063)" fill="#bf0031"/>
      <path id="Trazado_1276" data-name="Trazado 1276" d="M352.567,136.113v4.746h-1.122v-4.746h-1.5v-1h4.124v1Z" transform="translate(-298.81 -135.063)" fill="#bf0031"/>
      <path id="Trazado_1277" data-name="Trazado 1277" d="M367.193,140.859l-.339-1.017h-2.042l-.347,1.017h-1.17l2.09-5.747h.88l2.1,5.747Zm-1.34-4.052-.727,2.09h1.429Z" transform="translate(-307.342 -135.063)" fill="#bf0031"/>
      <path id="Trazado_1278" data-name="Trazado 1278" d="M380.445,140.859v-5.747h1.122v4.746h2.607v1Z" transform="translate(-318.301 -135.063)" fill="#bf0031"/>
      <path id="Trazado_1279" data-name="Trazado 1279" d="M404.855,140.859v-3.35l-1.1,2.18H403l-1.106-2.18v3.35h-1.122v-5.747h1.106l1.5,3.108,1.493-3.108h1.106v5.747Z" transform="translate(-331.29 -135.063)" fill="#bf0031"/>
      <path id="Trazado_1280" data-name="Trazado 1280" d="M422.2,140.859l-.339-1.017H419.82l-.347,1.017H418.3l2.09-5.747h.88l2.1,5.747Zm-1.34-4.052-.727,2.09h1.429Z" transform="translate(-342.494 -135.063)" fill="#bf0031"/>
      <path id="Trazado_1281" data-name="Trazado 1281" d="M438.85,140.859l-2.276-3.527v3.527h-1.122v-5.747h1l2.276,3.519v-3.519h1.122v5.747Z" transform="translate(-353.452 -135.063)" fill="#bf0031"/>
      <path id="Trazado_1282" data-name="Trazado 1282" d="M454.646,140.859l-.339-1.017h-2.042l-.347,1.017h-1.17l2.09-5.747h.88l2.1,5.747Zm-1.339-4.052-.727,2.09h1.429Z" transform="translate(-363.227 -135.063)" fill="#bf0031"/>
      <path id="Trazado_1283" data-name="Trazado 1283" d="M471.647,138.416a3.561,3.561,0,0,1-.125,1.033,1.819,1.819,0,0,1-.424.719,2.173,2.173,0,0,1-.739.5,2.39,2.39,0,0,1-.884.157,2.106,2.106,0,0,1-1.55-.63,1.645,1.645,0,0,1-.468-.863,10.605,10.605,0,0,1,0-2.857,1.653,1.653,0,0,1,.468-.864,2.107,2.107,0,0,1,1.55-.63,2.4,2.4,0,0,1,.868.145,1.966,1.966,0,0,1,.646.4,2,2,0,0,1,.432.589,2.5,2.5,0,0,1,.218.706h-1.13a.982.982,0,0,0-1.033-.839.9.9,0,0,0-.719.307,1.028,1.028,0,0,0-.133.2,1.062,1.062,0,0,0-.085.278,3.259,3.259,0,0,0-.044.44q-.012.267-.012.695t.012.694a3.823,3.823,0,0,0,.04.44,1.037,1.037,0,0,0,.08.283.842.842,0,0,0,.141.206.886.886,0,0,0,.719.3,1.036,1.036,0,0,0,.8-.323,1.129,1.129,0,0,0,.258-.767v-.218h-1.057v-.936h2.171v.839Z" transform="translate(-373.843 -134.977)" fill="#bf0031"/>
      <path id="Trazado_1284" data-name="Trazado 1284" d="M483.282,140.859v-5.747h3.785v1H484.4v1.348h2.268v1H484.4v1.4h2.664v1Z" transform="translate(-384.017 -135.063)" fill="#bf0031"/>
      <path id="Trazado_1285" data-name="Trazado 1285" d="M502.034,140.859v-3.35l-1.1,2.18h-.759l-1.106-2.18v3.35H497.95v-5.747h1.106l1.5,3.108,1.493-3.108h1.106v5.747Z" transform="translate(-393.39 -135.063)" fill="#bf0031"/>
      <path id="Trazado_1286" data-name="Trazado 1286" d="M517.225,140.859v-5.747h3.786v1h-2.664v1.348h2.268v1h-2.268v1.4h2.664v1Z" transform="translate(-405.708 -135.063)" fill="#bf0031"/>
      <path id="Trazado_1287" data-name="Trazado 1287" d="M535.293,140.859l-2.276-3.527v3.527H531.9v-5.747h1l2.276,3.519v-3.519h1.122v5.747Z" transform="translate(-415.082 -135.063)" fill="#bf0031"/>
      <path id="Trazado_1288" data-name="Trazado 1288" d="M550.371,136.113v4.746h-1.122v-4.746h-1.5v-1h4.124v1Z" transform="translate(-425.213 -135.063)" fill="#bf0031"/>
    </g>
  </g>
</svg>
